# xmcd
#
# Track frame offsets: 
#        150
#        13210
#        25317
#        37775
#        50341
#        62959
#        75054
#        87660
#        100348
#        112523
#        124972
#        137453
#        150380
#        162576
#        175152
#        186969
#        199362
#        211591
#        224434
#        236940
#        249275
#        261056
#        273818
#        286238
#        299348
#
# Disc length: 4165 seconds
#
# Revision: 0
# Processed by: cddbd v1.5.2PL0 Copyright (c) Steve Scherf et al.
# Submitted via: ExactAudioCopyFreeDBPlugin 1.0
#
DISCID=5d104319
DTITLE=Hank Williams - The Complete Singles As and Bs 1947-55
DYEAR=1900
DGENRE=Country
TTITLE0=Calling You
TTITLE1=Never Again (Will I Knock at Your Door)
TTITLE2=Wealth Won't Save Your Soul
TTITLE3=When God Comes and Gathers His Jewels
TTITLE4=I Don't Care (If Tomorrow Never Comes)
TTITLE5=My Love for You (Has Turned to Hate)
TTITLE6=Honky Tonkin'
TTITLE7=Pan American
TTITLE8=I Heard You Cryin' In Your Sleep
TTITLE9=Move It On Over
TTITLE10=Fly Trouble
TTITLE11=On The Banks Of The Old Ponchartrain
TTITLE12=My Sweet Love Ain't Around
TTITLE13=Rootie Tootie
TTITLE14=I'll Be A Bachelor Till I Die
TTITLE15=Honky Tonkin'
TTITLE16=The Blues Come Around
TTITLE17=I'm A Long Gone Daddy
TTITLE18=Six More Miles To The Graveyard
TTITLE19=I Saw The Light
TTITLE20=Mansion On The Hill
TTITLE21=I Can't Get You Off My Mind
TTITLE22=Lovesick Blues
TTITLE23=Wedding Bells
TTITLE24=I've Just Told Mama Goodbye
EXTD=
EXTT0=
EXTT1=
EXTT2=
EXTT3=
EXTT4=
EXTT5=
EXTT6=
EXTT7=
EXTT8=
EXTT9=
EXTT10=
EXTT11=
EXTT12=
EXTT13=
EXTT14=
EXTT15=
EXTT16=
EXTT17=
EXTT18=
EXTT19=
EXTT20=
EXTT21=
EXTT22=
EXTT23=
EXTT24=
PLAYORDER=
